#N canvas 500 300 600 400 10;
#X obj 56 83 adc~;
#X obj 83 139 *~ 0.5;
#X obj 150 182 delwrite~ left 10000;
#X obj 223 139 *~ 0.5;
#X obj 290 182 delwrite~ right 10000;
#X obj 353 276 delread~ left;
#X obj 353 321 delread~ right;
#X obj 353 354 dac~;
#X msg 83 307 1;
#X msg 223 307 1;
#X msg 290 306 1;
#X obj 147 255 *~ 0.7;
#X obj 218 259 *~ 0.7;
#X obj 277 304 *~ 0.7;
#X obj 26 306 toggle;
#X obj 147 211 delwrite~ left 10000;
#X obj 218 211 delwrite~ right 10000;
#X obj 83 172 *~ 0.7;
#X obj 216 173 *~ 0.7;
#X obj 284 89 delread~ right;
#X obj 278 90 delread~ left;
#X connect 0 0 1 0;
#X connect 1 0 2 0;
#X connect 2 0 9 0;
#X connect 9 0 8 0;
#X connect 1 0 3 0;
#X connect 3 0 4 0;
#X connect 4 0 5 0;
#X connect 4 0 7 0;
#X connect 5 0 7 0;
#X connect 8 0 11 0;
#X connect 6 0 7 0;
#X connect 6 0 10 0;
#X connect 11 0 12 0;
#X connect 10 0 12 0;
#X connect 12 0 13 0;
#X connect 12 1 13 1;
#X connect 13 0 14 0;
#X connect 13 1 14 1;
#X connect 14 0 15 0;
#X connect 14 1 15 1;
